<svg id="Layer_1" data-name="Layer 1" xmlns="http://www.w3.org/2000/svg" viewBox="0 0 368.7 82.2">
  <defs>
    <style>
      .cls-1 {
        fill: #75787b;
      }

      .cls-2 {
        fill: #dbe442;
      }

      .cls-3 {
        fill: #59cbe8;
      }

      .cls-4 {
        fill: #e4002b;
      }

      .cls-5 {
        fill: #ffbf3f;
      }

      .cls-6 {
        fill: #8246af;
      }

      .cls-7 {
        fill: #f04e98;
      }
    </style>
  </defs>
  <title>logo-totalplay-b</title>
  <g id="_Grupo_" data-name="&lt;Grupo&gt;">
    <path id="_Trazado_compuesto_" data-name="&lt;Trazado compuesto&gt;" class="cls-1" d="M353,35.8a7.88,7.88,0,0,1,15.73,0c0,4-3.55,7.3-7.87,7.3A7.61,7.61,0,0,1,353,35.8Zm1.3,0a6.56,6.56,0,0,0,13.08,0,6.56,6.56,0,0,0-13.08,0Zm10.16,3.94h-1.79L361.46,37c-.14-.26-.14-.3-.54-.3h-1.39v3.08H358v-8c1.21-.08,2.06-.12,2.92-.12,1.72,0,3.28.52,3.28,2.5a2.22,2.22,0,0,1-1.34,2.11C363.49,37.4,364.39,39.64,364.43,39.74Zm-4.9-6.66v2.24h1.53c.95,0,1.62-.26,1.62-1,0-1-.58-1.25-1.7-1.25C360.47,33,360,33,359.53,33.08Z"/>
    <rect id="_Trazado_" data-name="&lt;Trazado&gt;" class="cls-2" x="262.98" y="14.94" width="9.59" height="49.22"/>
    <path id="_Trazado_compuesto_2" data-name="&lt;Trazado compuesto&gt;" class="cls-3" d="M241,36c-4.1,0-6.78,1.57-6.78,5.89v7.6c0,4.73,1.51,7.74,6.64,7.74,6.44,0,7.33-5.75,7.33-11S247.48,36,241,36m2.06,28.35c-4,0-6.24-1-8.49-4.17h-.14V77.58h-9.65V29.22H233l.62,4h.14c2.47-3.56,5.48-4.8,9.73-4.8,10.48,0,14.58,8.22,14.58,17.6,0,9.79-4,18.28-14.93,18.28"/>
    <path id="_Trazado_2" data-name="&lt;Trazado&gt;" class="cls-4" d="M333.32,65c-4.52,11.43-6.71,14-15.07,14a43.57,43.57,0,0,1-5.21-.34v-8a32.77,32.77,0,0,0,3.84.2c3.7,0,4.59-1,5.82-4l1.58-3.9L310.79,29.22h10.47L329.21,53h.14l7.73-23.76h10.34Z"/>
    <path id="_Trazado_compuesto_3" data-name="&lt;Trazado compuesto&gt;" class="cls-5" d="M308.66,55.51V42.3c0-9.86-3.77-13.84-13.83-13.84a34.71,34.71,0,0,0-16.5,4.11l3,6.58a26.28,26.28,0,0,1,12.6-3.56c3.49,0,5.07,1,5.07,4.25v1.64c-8.56-.06-21.5,1.1-21.5,12.47,0,6.64,4.59,10.48,11.09,10.48A18.15,18.15,0,0,0,300,60.35a3,3,0,0,0,.09.5c1,3.31,6.74,3.54,11,3.31l.35-7.32C309.71,56.78,308.66,56.55,308.66,55.51Zm-9.45-.33a13.36,13.36,0,0,1-7.81,2.74c-2.81,0-4.52-1.78-4.52-4.66,0-6.23,7.8-6.3,12.33-6.3Z"/>
    <g id="_Grupo_2" data-name="&lt;Grupo&gt;">
      <path id="_Trazado_compuesto_4" data-name="&lt;Trazado compuesto&gt;" class="cls-1" d="M125.35,36.06c-6,0-7.88,3.63-7.88,10.34S119.39,57,125.42,57s7.81-3.7,7.81-10.61c0-6.71-1.85-10.34-7.87-10.34m0,28.28c-11.91,0-17.67-7.26-17.67-17.94,0-10,5.14-17.94,17.67-17.94,11.57,0,17.6,6.85,17.6,17.94,0,10.61-5.61,17.94-17.6,17.94"/>
      <polygon id="_Trazado_3" data-name="&lt;Trazado&gt;" class="cls-1" points="77.14 17.92 77.14 26.48 90.01 26.48 90.01 64.16 100.14 64.16 100.14 26.48 113.02 26.48 113.02 17.92 77.14 17.92"/>
      <path id="_Trazado_4" data-name="&lt;Trazado&gt;" class="cls-1" d="M165.51,56.22c-4.93.12-5.4-.51-5.44-3.44q0-.23,0-.48V37H168V29.22h-7.94V20.11h-9.52v9.11h-5.68V37h5.62V53.32c0,8.28,2.26,10.89,11.57,10.89a59.09,59.09,0,0,0,6-.48V56C167.3,56.12,166.71,56.19,165.51,56.22Z"/>
      <rect id="_Trazado_5" data-name="&lt;Trazado&gt;" class="cls-1" x="209.81" y="14.94" width="9.59" height="49.22"/>
      <path id="_Trazado_compuesto_5" data-name="&lt;Trazado compuesto&gt;" class="cls-1" d="M203.1,55.51V42.3c0-9.86-3.77-13.84-13.83-13.84a34.71,34.71,0,0,0-16.5,4.11l3,6.58a26.28,26.28,0,0,1,12.6-3.56c3.49,0,5.07,1,5.07,4.25v1.64c-8.56-.06-21.5,1.1-21.5,12.47,0,6.64,4.59,10.48,11.09,10.48a18.15,18.15,0,0,0,11.44-4.06,3,3,0,0,0,.09.5c1,3.31,6.74,3.54,11,3.31l.35-7.32C204.14,56.78,203.1,56.55,203.1,55.51Zm-9.45-.33a13.36,13.36,0,0,1-7.81,2.74c-2.81,0-4.52-1.78-4.52-4.66,0-6.23,7.8-6.3,12.33-6.3Z"/>
    </g>
    <g id="_Grupo_3" data-name="&lt;Grupo&gt;">
      <path id="_Trazado_6" data-name="&lt;Trazado&gt;" class="cls-5" d="M19.76,16.34c1.33-.77,1.33-2,0-2.8L2.43,3.53C1.09,2.76,0,3.39,0,4.93v20c0,1.54,1.09,2.17,2.43,1.4Z"/>
      <path id="_Trazado_7" data-name="&lt;Trazado&gt;" class="cls-6" d="M19.76,42c1.33-.77,1.33-2,0-2.8l-17.34-10C1.09,28.38,0,29,0,30.55v20c0,1.54,1.09,2.17,2.43,1.4Z"/>
      <path id="_Trazado_8" data-name="&lt;Trazado&gt;" class="cls-7" d="M19.76,67.59c1.33-.77,1.33-2,0-2.8l-17.34-10C1.09,54,0,54.64,0,56.18v20c0,1.54,1.09,2.17,2.43,1.4Z"/>
      <path id="_Trazado_9" data-name="&lt;Trazado&gt;" class="cls-3" d="M22.19,37.76c0,1.54,1.09,2.17,2.43,1.4L42,29.15c1.33-.77,1.33-2,0-2.8l-17.34-10c-1.33-.77-2.43-.14-2.43,1.4Z"/>
      <path id="_Trazado_10" data-name="&lt;Trazado&gt;" class="cls-2" d="M22.19,63.38c0,1.54,1.09,2.17,2.43,1.4L42,54.78c1.33-.77,1.33-2,0-2.8L24.62,42c-1.33-.77-2.43-.14-2.43,1.4Z"/>
      <path id="_Trazado_11" data-name="&lt;Trazado&gt;" class="cls-4" d="M44.38,50.57c0,1.54,1.09,2.17,2.43,1.4L64.14,42c1.33-.77,1.33-2,0-2.8l-17.34-10c-1.33-.77-2.43-.14-2.43,1.4Z"/>
    </g>
  </g>
</svg>
